<svg width="17" height="17" viewBox="0 0 17 17" fill="none" xmlns="http://www.w3.org/2000/svg">
<path fill-rule="evenodd" clip-rule="evenodd" d="M7.09375 1.75C4.14248 1.75 1.75 4.14248 1.75 7.09375C1.75 10.045 4.14248 12.4375 7.09375 12.4375C8.56959 12.4375 9.9045 11.8402 10.8724 10.8724C11.8402 9.9045 12.4375 8.56959 12.4375 7.09375C12.4375 4.14248 10.045 1.75 7.09375 1.75ZM0.25 7.09375C0.25 3.31405 3.31405 0.25 7.09375 0.25C10.8734 0.25 13.9375 3.31405 13.9375 7.09375C13.9375 8.7131 13.3743 10.202 12.4343 11.3737L16.5303 15.4697C16.8232 15.7626 16.8232 16.2374 16.5303 16.5303C16.2374 16.8232 15.7626 16.8232 15.4697 16.5303L11.3737 12.4343C10.202 13.3743 8.7131 13.9375 7.09375 13.9375C3.31405 13.9375 0.25 10.8734 0.25 7.09375Z" fill="#515151"/>
</svg>
